<svg width="399" height="261" viewBox="0 0 399 261" fill="none" xmlns="http://www.w3.org/2000/svg">
<path d="M36.65 26.15C36.65 25.05 36.55 23.95 36.35 22.85C36.25 21.65 35.95 20.6 35.45 19.7C35.05 18.7 34.4 17.9 33.5 17.3C32.7 16.7 31.55 16.4 30.05 16.4C28.15 16.4 26.55 17 25.25 18.2C24.65 16.6 24.35 15.15 24.35 13.85C24.35 12.25 24.6 10.7 25.1 9.19999C25.7 7.6 26.6 6.2 27.8 4.99999C29 3.8 30.5 2.85 32.3 2.14999C34.2 1.34999 36.5 0.949991 39.2 0.949991C45.2 0.949991 49.85 2.74999 53.15 6.34999C56.45 9.94999 58.1 14.9 58.1 21.2V110C55.4 110 52.75 109.8 50.15 109.4C47.65 109 45.35 108.2 43.25 107C41.25 105.7 39.65 103.8 38.45 101.3C37.25 98.8 36.65 95.45 36.65 91.25V26.15ZM22.1 110H20.6C18 110 15.5 109.75 13.1 109.25C10.7 108.75 8.55 107.85 6.65 106.55C4.85 105.25 3.35 103.45 2.15 101.15C1.05 98.85 0.5 95.85 0.5 92.15V1.1H2.9C5.3 1.1 7.65 1.4 9.95 2C12.25 2.5 14.3 3.44999 16.1 4.84999C17.9 6.15 19.35 7.95 20.45 10.25C21.55 12.55 22.1 15.5 22.1 19.1V110ZM72.65 26.15C72.65 25.05 72.55 23.95 72.35 22.85C72.25 21.65 71.95 20.6 71.45 19.7C71.05 18.7 70.4 17.9 69.5 17.3C68.7 16.7 67.55 16.4 66.05 16.4C64.15 16.4 62.55 17 61.25 18.2C60.65 16.6 60.35 15.15 60.35 13.85C60.35 12.25 60.6 10.7 61.1 9.19999C61.7 7.6 62.6 6.2 63.8 4.99999C65 3.8 66.5 2.85 68.3 2.14999C70.2 1.34999 72.5 0.949991 75.2 0.949991C81.2 0.949991 85.85 2.74999 89.15 6.34999C92.45 9.94999 94.1 14.9 94.1 21.2V110C91.4 110 88.75 109.8 86.15 109.4C83.65 109 81.35 108.2 79.25 107C77.25 105.7 75.65 103.8 74.45 101.3C73.25 98.8 72.65 95.45 72.65 91.25V26.15ZM130.495 84.65C130.495 85.75 130.545 86.9 130.645 88.1C130.845 89.2 131.145 90.25 131.545 91.25C132.045 92.15 132.695 92.9 133.495 93.5C134.395 94.1 135.595 94.4 137.095 94.4C138.895 94.4 140.495 93.8 141.895 92.6C142.195 93.4 142.395 94.15 142.495 94.85C142.695 95.45 142.795 96.15 142.795 96.95C142.795 98.55 142.495 100.15 141.895 101.75C141.395 103.25 140.545 104.6 139.345 105.8C138.145 107 136.595 108 134.695 108.8C132.895 109.5 130.645 109.85 127.945 109.85C121.945 109.85 117.295 108.05 113.995 104.45C110.695 100.85 109.045 95.9 109.045 89.6V0.799993C111.745 0.799993 114.345 0.999994 116.845 1.39999C119.445 1.8 121.745 2.65 123.745 3.95C125.845 5.14999 127.495 6.99999 128.695 9.5C129.895 12 130.495 15.35 130.495 19.55V84.65ZM166.795 110H165.295C162.695 110 160.195 109.75 157.795 109.25C155.395 108.75 153.245 107.85 151.345 106.55C149.545 105.25 148.045 103.45 146.845 101.15C145.745 98.85 145.195 95.85 145.195 92.15V1.1H147.595C149.995 1.1 152.345 1.4 154.645 2C156.945 2.5 158.995 3.44999 160.795 4.84999C162.595 6.15 164.045 7.95 165.145 10.25C166.245 12.55 166.795 15.5 166.795 19.1V110ZM203.748 62H201.948C199.648 62 197.348 61.75 195.048 61.25C192.748 60.75 190.598 59.85 188.598 58.55C186.698 57.15 185.148 55.3 183.948 53C182.748 50.6 182.148 47.6 182.148 44V19.1C182.148 15.5 182.748 12.55 183.948 10.25C185.148 7.85 186.698 6 188.598 4.7C190.598 3.3 192.748 2.35 195.048 1.85C197.348 1.35 199.648 1.1 201.948 1.1H203.748V62ZM181.098 95.6C181.098 92.5 181.698 90 182.898 88.1C184.098 86.1 185.548 84.55 187.248 83.45C188.948 82.35 190.748 81.65 192.648 81.35C194.548 80.95 196.198 80.75 197.598 80.75C198.798 80.75 199.798 80.85 200.598 81.05V88.55C200.598 92.25 202.048 94.1 204.948 94.1C205.848 94.1 206.598 93.95 207.198 93.65C207.798 93.35 208.448 92.9 209.148 92.3C209.448 93.1 209.598 94.1 209.598 95.3C209.698 96.5 209.748 97.45 209.748 98.15C209.748 99.35 209.548 100.65 209.148 102.05C208.748 103.45 208.048 104.75 207.048 105.95C206.148 107.05 204.848 108 203.148 108.8C201.448 109.6 199.298 110 196.698 110C193.998 110 191.648 109.55 189.648 108.65C187.748 107.75 186.148 106.65 184.848 105.35C183.648 103.95 182.698 102.4 181.998 100.7C181.398 99 181.098 97.3 181.098 95.6ZM212.148 49.25H213.948C216.148 49.25 218.398 49.5 220.698 50C223.098 50.5 225.248 51.45 227.148 52.85C229.148 54.15 230.748 56 231.948 58.4C233.148 60.7 233.748 63.65 233.748 67.25V92.15C233.748 95.75 233.148 98.75 231.948 101.15C230.748 103.45 229.148 105.3 227.148 106.7C225.248 108 223.098 108.9 220.698 109.4C218.398 109.9 216.148 110.15 213.948 110.15H212.148V49.25ZM234.498 15.5C234.498 18.7 233.898 21.25 232.698 23.15C231.498 25.05 230.048 26.55 228.348 27.65C226.648 28.75 224.848 29.5 222.948 29.9C221.048 30.2 219.398 30.35 217.998 30.35C216.798 30.35 215.798 30.25 214.998 30.05V22.55C214.998 18.85 213.548 17 210.648 17C209.748 17 208.998 17.15 208.398 17.45C207.798 17.75 207.148 18.2 206.448 18.8C206.148 18 205.948 17 205.848 15.8C205.848 14.6 205.848 13.65 205.848 12.95C205.848 11.75 206.048 10.45 206.448 9.04999C206.848 7.64999 207.498 6.4 208.398 5.3C209.398 4.1 210.748 3.09999 212.448 2.29999C214.148 1.5 216.298 1.1 218.898 1.1C221.598 1.1 223.898 1.55 225.798 2.45C227.798 3.35 229.398 4.5 230.598 5.9C231.898 7.19999 232.848 8.74999 233.448 10.55C234.148 12.25 234.498 13.9 234.498 15.5ZM270.391 110H268.891C266.291 110 263.791 109.75 261.391 109.25C258.991 108.75 256.841 107.85 254.941 106.55C253.141 105.25 251.641 103.45 250.441 101.15C249.341 98.85 248.791 95.85 248.791 92.15V1.1H251.191C253.591 1.1 255.941 1.4 258.241 2C260.541 2.5 262.591 3.44999 264.391 4.84999C266.191 6.15 267.641 7.95 268.741 10.25C269.841 12.55 270.391 15.5 270.391 19.1V110ZM307.012 110H305.512C302.912 110 300.412 109.75 298.012 109.25C295.612 108.75 293.462 107.85 291.562 106.55C289.762 105.25 288.262 103.45 287.062 101.15C285.962 98.85 285.412 95.85 285.412 92.15V19.1C285.412 15.5 285.962 12.55 287.062 10.25C288.162 7.95 289.612 6.15 291.412 4.84999C293.212 3.44999 295.262 2.5 297.562 2C299.862 1.4 302.212 1.1 304.612 1.1H307.012V110ZM339.862 95.6C339.862 97.3 339.562 99 338.962 100.7C338.362 102.4 337.412 103.95 336.112 105.35C334.812 106.65 333.212 107.75 331.312 108.65C329.412 109.55 327.162 110 324.562 110C320.362 110 316.812 108.85 313.912 106.55C311.112 104.15 309.712 100.85 309.712 96.65C309.712 95.85 309.712 95.15 309.712 94.55C309.812 93.85 310.012 93.1 310.312 92.3C311.612 93.5 313.212 94.1 315.112 94.1C316.612 94.1 317.862 93.65 318.862 92.75C319.862 91.75 320.362 90.3 320.362 88.4V81.05C321.162 80.85 322.162 80.75 323.362 80.75C324.762 80.75 326.412 80.95 328.312 81.35C330.212 81.65 332.012 82.35 333.712 83.45C335.412 84.55 336.862 86.1 338.062 88.1C339.262 90 339.862 92.5 339.862 95.6ZM339.862 15.35C339.862 18.55 339.262 21.1 338.062 23C336.862 24.9 335.412 26.4 333.712 27.5C332.012 28.6 330.212 29.35 328.312 29.75C326.412 30.05 324.762 30.2 323.362 30.2C322.162 30.2 321.162 30.1 320.362 29.9V23C320.362 21.2 319.912 19.75 319.012 18.65C318.112 17.45 316.812 16.85 315.112 16.85C313.212 16.85 311.612 17.45 310.312 18.65C310.012 17.85 309.812 17.15 309.712 16.55C309.712 15.85 309.712 15.1 309.712 14.3C309.712 13.1 309.912 11.75 310.312 10.25C310.812 8.64999 311.612 7.19999 312.712 5.9C313.812 4.5 315.262 3.35 317.062 2.45C318.962 1.44999 321.362 0.949991 324.262 0.949991C326.362 0.949991 328.362 1.29999 330.262 2C332.162 2.69999 333.812 3.69999 335.212 4.99999C336.612 6.29999 337.712 7.84999 338.512 9.65C339.412 11.35 339.862 13.25 339.862 15.35ZM22.1 242C22.1 245.5 21.4 248.4 20 250.7C18.6 253 16.85 254.85 14.75 256.25C12.65 257.55 10.3 258.5 7.7 259.1C5.2 259.7 2.8 260 0.5 260V171.65C0.5 165.05 2 159.95 5 156.35C8 152.75 12.35 150.95 18.05 150.95C20.85 150.95 23.25 151.45 25.25 152.45C27.25 153.35 28.85 154.55 30.05 156.05C31.25 157.55 32.1 159.3 32.6 161.3C33.2 163.2 33.5 165.2 33.5 167.3V168.8C32.8 168.2 32 167.8 31.1 167.6C30.3 167.3 29.5 167.15 28.7 167.15C27.2 167.15 26 167.45 25.1 168.05C24.3 168.55 23.65 169.25 23.15 170.15C22.75 170.95 22.45 171.9 22.25 173C22.15 174.1 22.1 175.25 22.1 176.45V242ZM35.3 151.25C35.8 151.25 36.2 151.25 36.5 151.25C36.9 151.15 37.35 151.1 37.85 151.1C43.95 151.1 48.65 152.75 51.95 156.05C55.25 159.35 56.9 164.65 56.9 171.95V198.8C56.9 202.1 56.4 205 55.4 207.5C54.5 210 53.25 212.15 51.65 213.95C50.15 215.65 48.3 216.95 46.1 217.85C44 218.75 41.75 219.2 39.35 219.2C36.25 219.2 33.7 218.7 31.7 217.7C29.7 216.7 28.1 215.4 26.9 213.8C25.8 212.1 25 210.2 24.5 208.1C24.1 206 23.9 203.9 23.9 201.8C25.3 202.6 26.9 203 28.7 203C30.2 203 31.35 202.75 32.15 202.25C33.05 201.65 33.7 200.95 34.1 200.15C34.6 199.25 34.9 198.25 35 197.15C35.2 196.05 35.3 194.9 35.3 193.7V151.25ZM89.0434 260H87.5434C84.9434 260 82.4434 259.75 80.0434 259.25C77.6434 258.75 75.4934 257.85 73.5934 256.55C71.7934 255.25 70.2934 253.45 69.0934 251.15C67.9934 248.85 67.4434 245.85 67.4434 242.15V151.1H69.8434C72.2434 151.1 74.5934 151.4 76.8934 152C79.1934 152.5 81.2434 153.45 83.0434 154.85C84.8434 156.15 86.2934 157.95 87.3934 160.25C88.4934 162.55 89.0434 165.5 89.0434 169.1V260ZM121.893 245.6C121.893 247.3 121.543 249 120.843 250.7C120.243 252.4 119.293 253.95 117.993 255.35C116.793 256.65 115.193 257.75 113.193 258.65C111.293 259.55 109.093 260 106.593 260H105.993C103.293 260 101.043 259.55 99.2434 258.65C97.4434 257.65 95.9434 256.5 94.7434 255.2C93.6434 253.8 92.8434 252.35 92.3434 250.85C91.9434 249.25 91.7434 247.85 91.7434 246.65C91.7434 245.85 91.7434 245.15 91.7434 244.55C91.8434 243.85 92.0434 243.1 92.3434 242.3C93.6434 243.5 95.2434 244.1 97.1434 244.1C98.6434 244.1 99.8934 243.65 100.893 242.75C101.893 241.75 102.393 240.3 102.393 238.4V231.05C102.593 230.95 103.243 230.9 104.343 230.9C105.543 230.8 106.493 230.75 107.193 230.75C108.293 230.75 109.693 230.95 111.393 231.35C113.093 231.65 114.693 232.35 116.193 233.45C117.793 234.55 119.143 236.1 120.243 238.1C121.343 240 121.893 242.5 121.893 245.6ZM152.436 260C149.836 260 147.336 259.75 144.936 259.25C142.536 258.75 140.386 257.85 138.486 256.55C136.686 255.25 135.186 253.45 133.986 251.15C132.886 248.85 132.336 245.85 132.336 242.15V169.1C132.336 165.7 133.036 162.85 134.436 160.55C135.836 158.15 137.586 156.3 139.686 155C141.786 153.6 144.086 152.6 146.586 152C149.186 151.4 151.636 151.1 153.936 151.1V260H152.436ZM155.436 197.6H167.586C167.586 201.7 166.836 205.15 165.336 207.95C163.836 210.65 160.786 212 156.186 212H155.436V197.6ZM168.636 176.15C168.636 175.05 168.536 173.95 168.336 172.85C168.236 171.65 167.936 170.6 167.436 169.7C167.036 168.7 166.386 167.9 165.486 167.3C164.686 166.7 163.536 166.4 162.036 166.4C160.136 166.4 158.536 167 157.236 168.2C156.636 166.6 156.336 165.15 156.336 163.85C156.336 162.25 156.586 160.7 157.086 159.2C157.686 157.6 158.586 156.2 159.786 155C160.986 153.8 162.486 152.85 164.286 152.15C166.186 151.35 168.486 150.95 171.186 150.95C174.186 150.95 176.836 151.5 179.136 152.6C181.536 153.6 183.536 155.05 185.136 156.95C186.736 158.75 187.936 160.9 188.736 163.4C189.636 165.8 190.086 168.4 190.086 171.2V260C187.386 260 184.736 259.8 182.136 259.4C179.636 259 177.336 258.2 175.236 257C173.236 255.7 171.636 253.8 170.436 251.3C169.236 248.8 168.636 245.45 168.636 241.25V176.15ZM240.689 151.1H243.089C245.489 151.1 247.839 151.4 250.139 152C252.439 152.5 254.489 153.45 256.289 154.85C258.089 156.15 259.539 157.95 260.639 160.25C261.739 162.55 262.289 165.5 262.289 169.1V219.5C262.289 223 261.789 226 260.789 228.5C259.789 230.9 258.439 232.9 256.739 234.5C255.139 236.1 253.239 237.3 251.039 238.1C248.939 238.8 246.689 239.15 244.289 239.15C243.689 239.15 243.089 239.15 242.489 239.15C241.889 239.05 241.289 238.95 240.689 238.85V151.1ZM221.639 218C219.339 218 217.139 217.6 215.039 216.8C213.039 215.9 211.239 214.65 209.639 213.05C208.039 211.35 206.739 209.3 205.739 206.9C204.839 204.4 204.389 201.5 204.389 198.2V151.1H207.539C213.639 151.1 218.239 152.75 221.339 156.05C224.439 159.25 225.989 164.5 225.989 171.8V193.1C225.989 194.3 226.039 195.45 226.139 196.55C226.339 197.65 226.639 198.65 227.039 199.55C227.539 200.35 228.189 201.05 228.989 201.65C229.889 202.15 231.089 202.4 232.589 202.4C233.389 202.4 234.189 202.3 234.989 202.1C235.889 201.8 236.689 201.35 237.389 200.75C237.389 203.05 237.089 205.25 236.489 207.35C235.889 209.35 234.939 211.15 233.639 212.75C232.339 214.35 230.689 215.65 228.689 216.65C226.689 217.55 224.339 218 221.639 218ZM215.639 245.75C215.639 242.65 216.189 240.15 217.289 238.25C218.389 236.25 219.739 234.7 221.339 233.6C223.039 232.5 224.789 231.8 226.589 231.5C228.489 231.1 230.139 230.9 231.539 230.9C232.239 230.9 232.939 230.95 233.639 231.05C234.439 231.05 234.939 231.1 235.139 231.2V238.1C235.139 240.2 235.639 241.75 236.639 242.75C237.639 243.75 238.889 244.25 240.389 244.25C242.189 244.25 243.789 243.65 245.189 242.45C245.489 243.25 245.639 244 245.639 244.7C245.739 245.3 245.789 246 245.789 246.8C245.789 248 245.489 249.4 244.889 251C244.389 252.5 243.539 253.95 242.339 255.35C241.239 256.65 239.739 257.8 237.839 258.8C236.039 259.7 233.839 260.15 231.239 260.15C228.539 260.15 226.189 259.7 224.189 258.8C222.289 257.9 220.689 256.8 219.389 255.5C218.189 254.1 217.239 252.55 216.539 250.85C215.939 249.15 215.639 247.45 215.639 245.75ZM298.077 260H296.577C293.977 260 291.477 259.75 289.077 259.25C286.677 258.75 284.527 257.85 282.627 256.55C280.827 255.25 279.327 253.45 278.127 251.15C277.027 248.85 276.477 245.85 276.477 242.15V169.1C276.477 165.5 277.027 162.55 278.127 160.25C279.227 157.95 280.677 156.15 282.477 154.85C284.277 153.45 286.327 152.5 288.627 152C290.927 151.4 293.277 151.1 295.677 151.1H298.077V260ZM301.227 197.6H314.577C314.577 199.9 314.377 202 313.977 203.9C313.677 205.8 313.027 207.5 312.027 209C311.127 210.4 309.877 211.5 308.277 212.3C306.677 213.1 304.627 213.5 302.127 213.5H301.227V197.6ZM330.927 245.6C330.927 247.3 330.627 249 330.027 250.7C329.427 252.4 328.477 253.95 327.177 255.35C325.877 256.65 324.277 257.75 322.377 258.65C320.477 259.55 318.227 260 315.627 260C313.727 260 311.877 259.7 310.077 259.1C308.277 258.4 306.677 257.45 305.277 256.25C303.977 255.05 302.877 253.65 301.977 252.05C301.177 250.45 300.777 248.65 300.777 246.65C300.777 245.85 300.777 245.15 300.777 244.55C300.877 243.85 301.077 243.1 301.377 242.3C302.677 243.5 304.277 244.1 306.177 244.1C307.677 244.1 308.927 243.65 309.927 242.75C310.927 241.75 311.427 240.3 311.427 238.4V231.05C312.227 230.85 313.227 230.75 314.427 230.75C315.827 230.75 317.477 230.95 319.377 231.35C321.277 231.65 323.077 232.35 324.777 233.45C326.477 234.55 327.927 236.1 329.127 238.1C330.327 240 330.927 242.5 330.927 245.6ZM330.927 165.35C330.927 168.55 330.327 171.1 329.127 173C327.927 174.9 326.477 176.4 324.777 177.5C323.077 178.6 321.277 179.35 319.377 179.75C317.477 180.05 315.827 180.2 314.427 180.2C313.227 180.2 312.227 180.1 311.427 179.9V173C311.427 171 310.927 169.5 309.927 168.5C309.027 167.4 307.777 166.85 306.177 166.85C304.277 166.85 302.677 167.45 301.377 168.65C301.077 167.85 300.877 167.15 300.777 166.55C300.777 165.85 300.777 165.1 300.777 164.3C300.777 163.1 301.027 161.75 301.527 160.25C302.127 158.65 302.977 157.2 304.077 155.9C305.277 154.5 306.777 153.35 308.577 152.45C310.477 151.45 312.727 150.95 315.327 150.95C317.427 150.95 319.427 151.3 321.327 152C323.227 152.7 324.877 153.7 326.277 155C327.677 156.3 328.777 157.85 329.577 159.65C330.477 161.35 330.927 163.25 330.927 165.35ZM363.848 242C363.848 245.5 363.148 248.4 361.748 250.7C360.348 253 358.598 254.85 356.498 256.25C354.398 257.55 352.048 258.5 349.448 259.1C346.948 259.7 344.548 260 342.248 260V172.85C342.248 165.85 343.848 160.45 347.048 156.65C350.248 152.85 354.848 150.95 360.848 150.95C363.848 150.95 366.298 151.45 368.198 152.45C370.098 153.45 371.548 154.75 372.548 156.35C373.648 157.95 374.398 159.7 374.798 161.6C375.198 163.4 375.398 165.15 375.398 166.85C375.398 167.75 375.298 168.4 375.098 168.8C373.798 167.7 372.248 167.15 370.448 167.15C368.948 167.15 367.748 167.45 366.848 168.05C366.048 168.55 365.398 169.25 364.898 170.15C364.498 170.95 364.198 171.9 363.998 173C363.898 174.1 363.848 175.25 363.848 176.45V242ZM377.048 151.25H378.998C384.698 151.25 389.398 153.05 393.098 156.65C396.798 160.15 398.648 165.25 398.648 171.95V187.7C398.648 194.3 396.998 199.3 393.698 202.7C390.498 206.1 386.598 207.9 381.998 208.1H380.948C378.148 208.1 375.798 207.6 373.898 206.6C371.998 205.6 370.448 204.35 369.248 202.85C368.148 201.25 367.348 199.55 366.848 197.75C366.348 195.85 366.098 194 366.098 192.2C366.798 192.8 367.448 193.25 368.048 193.55C368.648 193.75 369.848 193.85 371.648 193.85C372.948 193.85 373.948 193.5 374.648 192.8C375.448 192 375.998 191.05 376.298 189.95C376.698 188.85 376.898 187.65 376.898 186.35C376.998 184.95 377.048 183.7 377.048 182.6V151.25ZM396.248 260H394.748C392.148 260 389.548 259.75 386.948 259.25C384.448 258.75 382.148 257.85 380.048 256.55C378.048 255.25 376.398 253.45 375.098 251.15C373.798 248.85 373.148 245.85 373.148 242.15V210.35H375.548C378.048 210.35 380.548 210.65 383.048 211.25C385.548 211.75 387.748 212.7 389.648 214.1C391.648 215.4 393.248 217.2 394.448 219.5C395.648 221.8 396.248 224.75 396.248 228.35V260Z" fill="white"/>
</svg>
